# xmcd
#
# Track frame offsets: 
#        150
#        20817
#        37912
#        82412
#        121450
#
# Disc length: 2074 seconds
#
# Revision: 2
# Processed by: cddbd v1.5.2PL0 Copyright (c) Steve Scherf et al.
# Submitted via: ExactAudioCopyFreeDBPlugin 1.0
#
DISCID=3f081805
DTITLE=Mariah Carey - Butterfly [CDS)
DYEAR=1997
DGENRE=R&B
TTITLE0=Butterfly
TTITLE1=Fly Away (Butterfly Reprise)
TTITLE2=Fly Away (Butterfly Reprise) (Fly Away Club Mix)
TTITLE3=Fly Away (Butterfly Reprise) (Def 'B' Fly Mix)
TTITLE4=Honey (Morales Dub)
EXTD=
EXTT0=
EXTT1=
EXTT2=
EXTT3=
EXTT4=
PLAYORDER=
